<svg width="13" height="8" viewBox="0 0 13 8" fill="none" xmlns="http://www.w3.org/2000/svg">
<path d="M0.5 3.18198C0.223858 3.18198 0 3.40584 0 3.68198C0 3.95813 0.223858 4.18198 0.5 4.18198V3.68198V3.18198ZM12.8536 4.03554C13.0488 3.84028 13.0488 3.52369 12.8536 3.32843L9.67157 0.14645C9.47631 -0.0488122 9.15973 -0.0488122 8.96447 0.14645C8.7692 0.341712 8.7692 0.658295 8.96447 0.853557L11.7929 3.68198L8.96447 6.51041C8.7692 6.70567 8.7692 7.02226 8.96447 7.21752C9.15973 7.41278 9.47631 7.41278 9.67157 7.21752L12.8536 4.03554ZM0.5 3.68198V4.18198H12.5V3.68198V3.18198H0.5V3.68198Z" fill="white"/>
</svg>
