<svg width="130" height="41" viewBox="0 0 130 41" fill="none" xmlns="http://www.w3.org/2000/svg">
<g clip-path="url(#clip0_0_7)">
<mask id="mask0_0_7" style="mask-type:luminance" maskUnits="userSpaceOnUse" x="0" y="0" width="130" height="41">
<path d="M129.224 0.256836H0.133789V40.8648H129.224V0.256836Z" fill="white"/>
</mask>
<g mask="url(#mask0_0_7)">
<path d="M45.9185 17.2334L42.4858 40.8646H43.7769L44.7655 34.0006H47.9264L49.2175 40.8646H52.1416L47.7159 17.2334H45.9185ZM44.9299 32.7853L46.1486 24.4246L47.6831 32.7853H44.9299Z" fill="white"/>
<path d="M69.6995 32.9162L65.2519 17.2334H62.0581V40.8646H63.3163V22.3017L63.3032 20.7745L69.158 40.8581H70.9577V17.2334H69.6995V32.9162Z" fill="white"/>
<path d="M92.2642 33.6231L89.5396 17.2334H86.8587L87.9788 23.6588L86.6877 33.645L83.974 17.2334H81.2537L85.1599 40.8646H86.9574L88.4545 29.5061L88.6321 28.1228L88.928 29.5061L90.7254 40.8646H92.5251L95.7912 17.2334H94.5001L92.2642 33.6231Z" fill="white"/>
<path d="M109.079 17.2334H106.227V40.8646H109.079V17.2334Z" fill="white"/>
<path d="M127.972 17.2334V32.9162L123.518 17.2334H120.324V40.8646H121.582V22.3017L121.569 20.7745L127.424 40.8581H129.224V17.2334H127.972Z" fill="white"/>
<path d="M11.5389 0.256836H9.90576V33.0998H11.5389V0.256836Z" fill="white"/>
<path d="M14.7107 40.5904H16.3437V11.7314H14.7107V40.5904Z" fill="white"/>
<path d="M21.3085 25.7559H19.6755V40.59H21.3085V25.7559Z" fill="white"/>
<path d="M1.76684 25.7559H0.133789V40.59H1.76684V25.7559Z" fill="white"/>
<path d="M4.93872 40.5904H6.57177V11.7314H4.93872V40.5904Z" fill="white"/>
</g>
</g>
<defs>
<clipPath id="clip0_0_7">
<rect width="130" height="41" fill="white"/>
</clipPath>
</defs>
</svg>
