<svg width="12" height="11" viewBox="0 0 12 11" fill="none" xmlns="http://www.w3.org/2000/svg">
<path fill-rule="evenodd" clip-rule="evenodd" d="M5.38582 5.36327C5.0897 5.58014 4.77103 5.81383 4.42979 6.06439C4.06173 6.33925 3.73201 6.47257 3.43296 6.46423C3.10323 6.45589 2.47446 6.26431 1.99905 6.09769C1.93332 6.07483 1.86909 6.05323 1.80695 6.03223C1.3253 5.86987 0.96826 5.74951 1.00222 5.43967C1.02522 5.25641 1.25526 5.07316 1.68467 4.88159C4.36844 3.61549 6.15505 2.7742 7.05222 2.36605C9.60568 1.20823 10.1424 1.00832 10.4875 0.99999C10.5642 0.99999 10.7328 1.01665 10.8479 1.11661C10.9399 1.1999 10.9629 1.30819 10.9782 1.39148C10.9935 1.47478 11.0089 1.6497 10.9935 1.78297C10.8555 3.3656 10.2575 7.20552 9.95074 8.97143C9.82036 9.72106 9.56728 9.97096 9.32194 9.99598C8.89469 10.0358 8.54999 9.76936 8.16803 9.47422C8.07011 9.39857 7.96979 9.32105 7.86503 9.24629C7.42026 8.93177 7.08336 8.68211 6.7401 8.42771C6.45607 8.21717 6.16765 8.00346 5.81002 7.74696C5.02339 7.18686 5.35368 6.84343 5.79382 6.38581C5.86424 6.31255 5.93747 6.23641 6.00937 6.15601C6.01561 6.14923 6.02635 6.13807 6.04117 6.12283C6.09367 6.06883 6.19753 5.96407 6.33427 5.82613C6.75054 5.40636 7.47168 4.67913 7.97753 4.1396C8.14517 3.96078 8.28917 3.80258 8.39057 3.68302C8.39843 3.67372 8.40611 3.66464 8.41349 3.65581C8.49287 3.56067 8.54123 3.4937 8.54747 3.46556C8.55515 3.44057 8.55515 3.34061 8.50145 3.29063C8.44781 3.24065 8.37113 3.25732 8.30975 3.27397C8.29631 3.27664 8.25215 3.30264 8.17727 3.35196C8.16599 3.35939 8.15405 3.36734 8.14133 3.37583C8.02547 3.45345 7.85117 3.5753 7.61838 3.7413C7.13112 4.08878 6.38743 4.62971 5.38582 5.36327ZM4.34404 7.27092C4.36208 7.42614 4.40657 7.5843 4.48262 7.74156C4.65368 8.09538 4.94407 8.35781 5.22852 8.56049C5.54497 8.78747 5.83295 9.00059 6.12325 9.21539C6.48697 9.48448 6.85428 9.75628 7.28586 10.0615C7.3731 10.1238 7.45476 10.1868 7.55064 10.2609C7.57416 10.2791 7.59858 10.298 7.62408 10.3176C7.7442 10.41 7.89101 10.5213 8.04893 10.6216C8.36813 10.8242 8.83085 11.046 9.41464 10.9917L9.41896 10.9913L9.42322 10.9908C9.88864 10.9434 10.257 10.6781 10.5018 10.3244C10.7274 9.99838 10.8582 9.58954 10.9359 9.14273C11.2417 7.38204 11.8449 3.51722 11.9888 1.88091C12.0154 1.62848 11.989 1.35911 11.9617 1.21041C11.9611 1.20719 11.9604 1.20354 11.9597 1.19949C11.9403 1.09107 11.8686 0.691803 11.5189 0.375251L11.5114 0.368453L11.5038 0.361805C11.1055 0.0157043 10.6242 0 10.4875 0H10.4754L10.4633 0.000290999C10.0994 0.00907553 9.73582 0.122725 9.23122 0.32166C8.70767 0.528064 7.91273 0.877873 6.63925 1.45531L6.6381 1.45582C5.73398 1.86716 3.94215 2.71092 1.2671 3.97289C1.02008 4.08369 0.769302 4.21797 0.560484 4.38762C0.364006 4.54724 0.0685044 4.84916 0.0100129 5.31512L0.00903365 5.32292L0.00817728 5.33073C-0.0289315 5.66935 0.0611581 5.99485 0.260148 6.26089C0.434291 6.49375 0.654103 6.63055 0.805079 6.70993C1.02518 6.82573 1.32291 6.92539 1.53818 6.99738C1.58682 7.0137 1.63125 7.02852 1.66963 7.0419C1.92125 7.13004 2.2212 7.2276 2.50947 7.3056C2.7734 7.377 3.11246 7.4562 3.40641 7.46382C3.74043 7.47294 4.05439 7.39656 4.34404 7.27092Z" fill="white"/>
</svg>
