<svg width="65" height="13" viewBox="0 0 65 13" fill="none" xmlns="http://www.w3.org/2000/svg">
<path d="M10.1772 0.845068H11.2154L8.86129 9.29585H7.59368L6.73653 6.2415L5.69829 2.05232H5.5172L4.47896 6.2415L3.63388 9.29585H2.35419L4.12859e-05 0.845068H1.03828L2.16103 4.88937L3.00611 8.26969L3.83911 4.88937L4.96186 0.845068H6.25362L7.37637 4.88937L8.22145 8.28176L9.06653 4.88937L10.1772 0.845068ZM15.9608 2.52315C17.4699 2.52315 18.3632 3.46481 18.3632 5.08253V9.29585H17.3612V5.2757C17.3612 4.08051 16.7817 3.47688 15.6831 3.47688C14.3189 3.47688 13.5825 4.43062 13.5825 5.8914V9.29585H12.5805V-1.0314e-05H13.5825V3.94771C14.0413 3.06642 14.8139 2.52315 15.9608 2.52315ZM25.4855 2.65595H26.4875V9.29585H25.4855V7.9558C24.9664 8.84917 24.073 9.42865 22.9261 9.42865C21.1152 9.42865 19.8235 7.97995 19.8235 5.9759C19.8235 3.95979 21.1273 2.52315 22.9261 2.52315C24.073 2.52315 24.9784 3.11471 25.4855 4.02015V2.65595ZM23.1193 8.47492C24.4714 8.47492 25.4976 7.43668 25.4976 5.9759C25.4976 4.51512 24.4714 3.47688 23.1193 3.47688C21.7671 3.47688 20.8375 4.5272 20.8375 5.9759C20.8375 7.43668 21.7792 8.47492 23.1193 8.47492ZM32.9673 8.17311L33.1483 9.00611C32.7862 9.19927 32.0739 9.42865 31.3495 9.42865C29.925 9.42865 28.9712 8.51114 28.9712 6.76062V3.59761H27.6916V2.65595H28.9712V1.06237L29.9733 0.845068V2.65595H32.9552V3.59761H29.9733V6.71233C29.9733 7.84715 30.4803 8.49907 31.5185 8.49907C31.9894 8.49907 32.4723 8.3542 32.9673 8.17311ZM37.2145 9.42865C35.4761 9.42865 34.2688 8.61979 34.0032 7.21938H35.0294C35.295 8.14896 35.9831 8.47492 37.2145 8.47492C38.2045 8.47492 38.9288 8.12482 38.9288 7.48497C38.9288 6.83305 38.1924 6.70026 36.9731 6.39844C35.1381 5.93969 34.3413 5.61373 34.3413 4.5272C34.3413 3.24751 35.464 2.52315 37.0334 2.52315C38.5908 2.52315 39.5928 3.23543 39.8584 4.43062H38.8443C38.5908 3.75455 37.951 3.47688 37.0576 3.47688C35.9831 3.47688 35.3554 3.88735 35.3554 4.45476C35.3554 4.98595 35.8865 5.13082 37.2266 5.46886C38.9288 5.8914 39.955 6.15699 39.955 7.40046C39.955 8.76466 38.7115 9.42865 37.2145 9.42865ZM47.8056 9.29585L46.8036 6.76062H42.88L41.878 9.29585H40.8156L44.196 0.845068H45.4877L48.868 9.29585H47.8056ZM43.2664 5.80689H46.4294L44.8479 1.7988L43.2664 5.80689ZM53.6564 2.52315C55.4552 2.52315 56.759 3.95979 56.759 5.9759C56.759 7.97995 55.4552 9.42865 53.6443 9.42865C52.4974 9.42865 51.6041 8.84917 51.097 7.9558V12.314H50.095V2.65595H51.097V4.02015C51.6041 3.11471 52.5095 2.52315 53.6564 2.52315ZM53.4632 8.47492C54.8033 8.47492 55.745 7.43668 55.745 5.9759C55.745 4.5272 54.8033 3.47688 53.4632 3.47688C52.1111 3.47688 51.0849 4.51512 51.0849 5.9759C51.0849 7.43668 52.1111 8.47492 53.4632 8.47492ZM61.8973 2.52315C63.6961 2.52315 65 3.95979 65 5.9759C65 7.97995 63.6961 9.42865 61.8853 9.42865C60.7384 9.42865 59.845 8.84917 59.338 7.9558V12.314H58.3359V2.65595H59.338V4.02015C59.845 3.11471 60.7504 2.52315 61.8973 2.52315ZM61.7042 8.47492C63.0442 8.47492 63.9859 7.43668 63.9859 5.9759C63.9859 4.5272 63.0442 3.47688 61.7042 3.47688C60.352 3.47688 59.3259 4.51512 59.3259 5.9759C59.3259 7.43668 60.352 8.47492 61.7042 8.47492Z" fill="white"/>
</svg>
