<svg width="106" height="9" viewBox="0 0 106 9" fill="none" xmlns="http://www.w3.org/2000/svg">
<path d="M4.98928 4.11172C5.93906 4.40026 6.51614 5.1697 6.51614 6.19162C6.51614 7.71848 5.27782 8.68029 3.4023 8.68029C1.64701 8.68029 0.252397 7.86275 -7.6273e-05 6.14353H1.00982C1.26229 7.28567 2.16398 7.73051 3.39028 7.73051C4.7368 7.73051 5.50625 7.10533 5.50625 6.11949C5.50625 5.27791 4.98928 4.64071 3.58264 4.64071H2.26016V3.76307H3.28208C4.59253 3.76307 5.20568 3.28217 5.20568 2.46463C5.20568 1.52687 4.44826 0.949793 3.25803 0.949793C2.13994 0.949793 1.43061 1.32249 1.14207 2.42857H0.132172C0.444758 0.69732 1.67106 1.26599e-05 3.28208 1.26599e-05C4.97726 1.26599e-05 6.21558 0.949793 6.21558 2.34441C6.21558 3.1379 5.77074 3.82318 4.98928 4.11172ZM13.3075 1.93564H14.3053V8.54804H13.3075V7.21354C12.7905 8.1032 11.9008 8.68029 10.7587 8.68029C8.95531 8.68029 7.6689 7.23758 7.6689 5.24184C7.6689 3.23408 8.96733 1.80339 10.7587 1.80339C11.9008 1.80339 12.8025 2.3925 13.3075 3.29419V1.93564ZM10.951 7.73051C12.2976 7.73051 13.3195 6.69657 13.3195 5.24184C13.3195 3.78711 12.2976 2.75317 10.951 2.75317C9.60452 2.75317 8.67879 3.79914 8.67879 5.24184C8.67879 6.69657 9.61655 7.73051 10.951 7.73051ZM21.9244 8.54804H20.614L17.0794 5.36207V8.54804H16.0815V1.93564H17.0794V4.88116L20.3014 1.93564H21.6118L18.1373 5.07352L21.9244 8.54804ZM27.866 1.93564H28.8639V8.54804H27.866V7.21354C27.349 8.1032 26.4594 8.68029 25.3172 8.68029C23.5139 8.68029 22.2274 7.23758 22.2274 5.24184C22.2274 3.23408 23.5259 1.80339 25.3172 1.80339C26.4594 1.80339 27.3611 2.3925 27.866 3.29419V1.93564ZM25.5096 7.73051C26.8561 7.73051 27.878 6.69657 27.878 5.24184C27.878 3.78711 26.8561 2.75317 25.5096 2.75317C24.1631 2.75317 23.2373 3.79914 23.2373 5.24184C23.2373 6.69657 24.1751 7.73051 25.5096 7.73051ZM34.9561 5.04948C35.7616 5.31398 36.0983 5.97522 36.0983 6.69657C36.0983 7.8868 35.0643 8.68029 33.3331 8.68029C31.3614 8.68029 30.4116 7.79062 30.1471 6.40803H31.157C31.3854 7.45399 32.1068 7.89882 33.297 7.89882C34.5474 7.89882 35.0884 7.34578 35.0884 6.62443C35.0884 6.10746 34.8479 5.51836 33.7058 5.51836H32.3713V4.72487H33.4293C34.5474 4.72487 34.872 4.30408 34.872 3.75105C34.872 3.12587 34.4271 2.57284 33.2008 2.57284C32.3713 2.57284 31.6018 2.86138 31.3614 3.71498H30.3515C30.616 2.56081 31.5417 1.80339 33.2249 1.80339C34.92 1.80339 35.8819 2.58486 35.8819 3.69093C35.8819 4.34015 35.5572 4.79701 34.9561 5.04948ZM42.859 1.93564H43.8568V8.54804H42.859V7.21354C42.342 8.1032 41.4523 8.68029 40.3102 8.68029C38.5068 8.68029 37.2204 7.23758 37.2204 5.24184C37.2204 3.23408 38.5188 1.80339 40.3102 1.80339C41.4523 1.80339 42.354 2.3925 42.859 3.29419V1.93564ZM40.5025 7.73051C41.8491 7.73051 42.871 6.69657 42.871 5.24184C42.871 3.78711 41.8491 2.75317 40.5025 2.75317C39.156 2.75317 38.2303 3.79914 38.2303 5.24184C38.2303 6.69657 39.168 7.73051 40.5025 7.73051ZM50.6223 1.93564V2.8734H48.338V8.54804H47.3402V2.8734H45.0559V1.93564H48.338H50.6223ZM54.9582 4.12374C56.449 4.12374 57.2906 4.8451 57.2906 6.29982C57.2906 7.74253 56.4009 8.54804 54.9102 8.54804H51.8204V1.93564H52.8182V4.12374H54.9582ZM54.8861 7.59826C55.9681 7.59826 56.2807 7.02118 56.2807 6.29982C56.2807 5.55443 55.9922 5.01341 54.9102 5.01341H52.8182V7.59826H54.8861ZM66.7149 5.04948C67.5204 5.31398 67.857 5.97522 67.857 6.69657C67.857 7.8868 66.8231 8.68029 65.0918 8.68029C63.1201 8.68029 62.1704 7.79062 61.9059 6.40803H62.9158C63.1442 7.45399 63.8655 7.89882 65.0558 7.89882C66.3061 7.89882 66.8471 7.34578 66.8471 6.62443C66.8471 6.10746 66.6067 5.51836 65.4645 5.51836H64.13V4.72487H65.188C66.3061 4.72487 66.6307 4.30408 66.6307 3.75105C66.6307 3.12587 66.1859 2.57284 64.9596 2.57284C64.13 2.57284 63.3606 2.86138 63.1201 3.71498H62.1102C62.3747 2.56081 63.3005 1.80339 64.9836 1.80339C66.6788 1.80339 67.6406 2.58486 67.6406 3.69093C67.6406 4.34015 67.316 4.79701 66.7149 5.04948ZM73.5477 5.02543C74.4254 5.26589 74.8221 5.89106 74.8221 6.67252C74.8221 7.81466 74.0647 8.54804 72.5018 8.54804H69.2436V1.93564H72.2012C73.7401 1.93564 74.5095 2.48868 74.5095 3.6188C74.5095 4.25599 74.1609 4.71285 73.5477 5.02543ZM73.4996 3.78711C73.4996 3.16194 73.2231 2.74115 72.1291 2.74115H70.2415V4.76094H72.105C73.151 4.76094 73.4996 4.32813 73.4996 3.78711ZM72.4416 7.74253C73.5357 7.74253 73.8242 7.22556 73.8242 6.58836C73.8242 5.98724 73.4756 5.50634 72.4176 5.50634H70.2415V7.74253H72.4416ZM79.3438 1.80339C81.2313 1.80339 82.7582 3.25812 82.7582 5.24184C82.7582 7.22556 81.2554 8.68029 79.3438 8.68029C77.4442 8.68029 75.9414 7.21354 75.9414 5.24184C75.9414 3.25812 77.4683 1.80339 79.3438 1.80339ZM79.3438 2.75317C78.0213 2.75317 76.9513 3.77509 76.9513 5.24184C76.9513 6.69657 78.0093 7.73051 79.3438 7.73051C80.6903 7.73051 81.7483 6.69657 81.7483 5.24184C81.7483 3.78711 80.6783 2.75317 79.3438 2.75317ZM89.3216 1.93564H90.3194V8.54804H89.3216V5.63858H85.258V8.54804H84.2601V1.93564H85.258V4.6888H89.3216V1.93564ZM95.2408 1.80339C97.1283 1.80339 98.6552 3.25812 98.6552 5.24184C98.6552 7.22556 97.1524 8.68029 95.2408 8.68029C93.3412 8.68029 91.8384 7.21354 91.8384 5.24184C91.8384 3.25812 93.3653 1.80339 95.2408 1.80339ZM95.2408 2.75317C93.9183 2.75317 92.8483 3.77509 92.8483 5.24184C92.8483 6.69657 93.9063 7.73051 95.2408 7.73051C96.5873 7.73051 97.6453 6.69657 97.6453 5.24184C97.6453 3.78711 96.5753 2.75317 95.2408 2.75317ZM106 8.54804H104.69L101.155 5.36207V8.54804H100.157V1.93564H101.155V4.88116L104.377 1.93564H105.687L102.213 5.07352L106 8.54804Z" fill="white"/>
</svg>
