<svg width="56" height="13" viewBox="0 0 56 13" fill="none" xmlns="http://www.w3.org/2000/svg">
<path d="M6.44344 0.843051V1.79451H3.72156V9.27367H2.70988V1.79451H4.11874e-05V0.843051H6.44344ZM9.61123 2.51713C11.6707 2.51713 13.0076 4.08282 12.9233 6.26273H7.25065C7.347 7.63572 8.32255 8.46674 9.6594 8.46674C10.5747 8.46674 11.3335 8.08134 11.7309 7.31054H12.7667C12.2127 8.71966 11.0083 9.40615 9.62327 9.40615C7.66014 9.40615 6.22694 8.00908 6.22694 5.98573C6.22694 3.97442 7.63605 2.51713 9.61123 2.51713ZM9.61123 3.45654C8.39481 3.45654 7.52766 4.23939 7.29883 5.32332H11.8393C11.6225 4.2153 10.8036 3.45654 9.61123 3.45654ZM14.42 9.27367V-1.02894e-05H15.4196V9.27367H14.42ZM20.2906 2.51713C22.3501 2.51713 23.687 4.08282 23.6027 6.26273H17.9301C18.0264 7.63572 19.002 8.46674 20.3388 8.46674C21.2541 8.46674 22.0129 8.08134 22.4103 7.31054H23.4461C22.8921 8.71966 21.6877 9.40615 20.3027 9.40615C18.3395 9.40615 16.9063 8.00908 16.9063 5.98573C16.9063 3.97442 18.3155 2.51713 20.2906 2.51713ZM20.2906 3.45654C19.0742 3.45654 18.2071 4.23939 17.9782 5.32332H22.5187C22.3019 4.2153 21.483 3.45654 20.2906 3.45654ZM30.4468 2.64961H31.4464V9.20141C31.4464 11.1766 30.2421 12.4171 28.303 12.4171C26.7373 12.4171 25.3884 11.5861 25.0632 10.0324H26.099C26.376 10.9839 27.207 11.5258 28.2789 11.5258C29.664 11.5258 30.4468 10.6948 30.4468 9.22549V7.88864C29.9289 8.77988 29.0256 9.35797 27.8935 9.35797C26.087 9.35797 24.7983 7.91273 24.7983 5.93755C24.7983 3.95034 26.099 2.51713 27.8935 2.51713C29.0136 2.51713 29.941 3.10727 30.4468 3.99851V2.64961ZM28.0862 8.40652C29.4351 8.40652 30.4588 7.37076 30.4588 5.93755C30.4588 4.50435 29.4351 3.46859 28.0862 3.46859C26.7373 3.46859 25.81 4.51639 25.81 5.93755C25.81 7.37076 26.7494 8.40652 28.0862 8.40652ZM36.5859 2.51713C36.7425 2.51713 36.899 2.52918 36.9954 2.54122V3.56494C36.887 3.55289 36.7425 3.54085 36.5739 3.54085C35.1888 3.54085 34.2253 4.44413 34.2253 6.1423V9.27367H33.2257V2.64961H34.2253V4.13099C34.6228 3.14341 35.4177 2.51713 36.5859 2.51713ZM43.5138 2.64961H44.5134V9.27367H43.5138V7.93681C42.9959 8.82805 42.1047 9.40615 40.9605 9.40615C39.154 9.40615 37.8653 7.9609 37.8653 5.96164C37.8653 3.95034 39.166 2.51713 40.9605 2.51713C42.1047 2.51713 43.0079 3.10727 43.5138 4.01055V2.64961ZM41.1532 8.45469C42.5021 8.45469 43.5258 7.41893 43.5258 5.96164C43.5258 4.50435 42.5021 3.46859 41.1532 3.46859C39.8043 3.46859 38.8769 4.51639 38.8769 5.96164C38.8769 7.41893 39.8164 8.45469 41.1532 8.45469ZM53.7959 2.51713C55.193 2.51713 55.9999 3.40837 55.9999 4.97405V9.27367H55.0003V5.15471C55.0003 4.03464 54.4945 3.46859 53.5069 3.46859C52.2543 3.46859 51.6401 4.54048 51.6401 5.87733L51.6522 9.27367H50.6405V5.15471C50.6405 4.03464 50.1467 3.46859 49.1471 3.46859C47.9065 3.46859 47.2923 4.54048 47.2923 5.87733V9.27367H46.2927V2.64961H47.2923V3.90216C47.7259 3.04706 48.3883 2.51713 49.4481 2.51713C50.5321 2.51713 51.2547 3.0591 51.5197 4.03464C51.9412 3.11932 52.6638 2.51713 53.7959 2.51713Z" fill="white"/>
</svg>
