<svg width="12" height="12" viewBox="0 0 12 12" fill="none" xmlns="http://www.w3.org/2000/svg">
<g clip-path="url(#clip0_53_4097)">
<mask id="mask0_53_4097" style="mask-type:luminance" maskUnits="userSpaceOnUse" x="0" y="0" width="12" height="12">
<path d="M12 0H0V12H12V0Z" fill="white"/>
</mask>
<g mask="url(#mask0_53_4097)">
<path fill-rule="evenodd" clip-rule="evenodd" d="M5.38586 5.86341C5.08974 6.08027 4.77107 6.31397 4.42982 6.56453C4.06176 6.83939 3.73204 6.97271 3.43298 6.96437C3.10326 6.95603 2.47448 6.76445 1.99907 6.59783C1.93334 6.57497 1.86911 6.55337 1.80696 6.53237C1.32531 6.37001 0.968268 6.24965 1.00223 5.93981C1.02523 5.75655 1.25527 5.5733 1.68468 5.38172C4.36848 4.11561 6.1551 3.27431 7.05228 2.86616C9.60576 1.70833 10.1425 1.50842 10.4876 1.50009C10.5643 1.50009 10.7329 1.51675 10.8479 1.61671C10.94 1.7 10.963 1.80829 10.9783 1.89158C10.9936 1.97488 11.009 2.14981 10.9936 2.28308C10.8556 3.86572 10.2575 7.70567 9.95082 9.47159C9.82044 10.2212 9.56736 10.4711 9.32202 10.4962C8.89476 10.5359 8.55006 10.2695 8.1681 9.97439C8.07018 9.89874 7.96986 9.82121 7.8651 9.74645C7.42032 9.43193 7.08342 9.18227 6.74016 8.92787C6.45612 8.71733 6.1677 8.50361 5.81006 8.24711C5.02343 7.68701 5.35373 7.34357 5.79387 6.88595C5.86429 6.81269 5.93752 6.73655 6.00942 6.65615C6.01566 6.64937 6.0264 6.63821 6.04122 6.62297C6.09372 6.56897 6.19758 6.46421 6.33432 6.32627C6.7506 5.9065 7.47174 5.17926 7.9776 4.63973C8.14524 4.4609 8.28924 4.3027 8.39064 4.18315C8.3985 4.17384 8.40618 4.16476 8.41356 4.15593C8.49294 4.06079 8.5413 3.99382 8.54754 3.96568C8.55522 3.94069 8.55522 3.84073 8.50152 3.79075C8.44788 3.74077 8.3712 3.75743 8.30982 3.77409C8.29638 3.77675 8.25222 3.80276 8.17734 3.85208C8.16606 3.85951 8.15412 3.86746 8.1414 3.87595C8.02554 3.95357 7.85124 4.07542 7.61844 4.24142C7.13118 4.5889 6.38748 5.12984 5.38586 5.86341ZM4.34408 7.77107C4.36211 7.92629 4.4066 8.08445 4.48265 8.24171C4.65371 8.59553 4.94411 8.85797 5.22857 9.06065C5.54502 9.28763 5.833 9.50075 6.1233 9.71555C6.48702 9.98465 6.85434 10.2565 7.28592 10.5617C7.37316 10.624 7.45482 10.687 7.5507 10.7611C7.57422 10.7793 7.59864 10.7981 7.62414 10.8178C7.74426 10.9102 7.89108 11.0215 8.049 11.1218C8.3682 11.3244 8.83092 11.5462 9.41472 11.4919L9.41904 11.4914L9.4233 11.491C9.88872 11.4436 10.2571 11.1783 10.5019 10.8246C10.7275 10.4986 10.8583 10.0897 10.936 9.64289C11.2418 7.88219 11.845 4.01734 11.9889 2.38102C12.0155 2.12859 11.9891 1.85921 11.9618 1.71052C11.9612 1.70729 11.9605 1.70365 11.9598 1.6996C11.9404 1.59117 11.8687 1.1919 11.519 0.875346L11.5115 0.868548L11.5039 0.8619C11.1056 0.515796 10.6243 0.500092 10.4876 0.500092H10.4755L10.4634 0.500383C10.0995 0.509167 9.7359 0.622818 9.2313 0.821754C8.70774 1.02816 7.9128 1.37797 6.6393 1.95541L6.63816 1.95593C5.73403 2.36726 3.94218 3.21103 1.26711 4.47302C1.02009 4.58381 0.769308 4.71809 0.560489 4.88774C0.364009 5.04737 0.068505 5.34929 0.010013 5.81525L0.00903373 5.82305L0.00817735 5.83087C-0.0289318 6.16949 0.0611586 6.49499 0.26015 6.76103C0.434295 6.99389 0.654108 7.13069 0.805086 7.21007C1.02519 7.32587 1.32292 7.42553 1.5382 7.49753C1.58684 7.51385 1.63127 7.52867 1.66964 7.54205C1.92127 7.63019 2.22122 7.72775 2.50949 7.80575C2.77343 7.87715 3.11249 7.95635 3.40643 7.96397C3.74046 7.97309 4.05443 7.89671 4.34408 7.77107Z" fill="white"/>
</g>
</g>
<defs>
<clipPath id="clip0_53_4097">
<rect width="12" height="12" fill="white"/>
</clipPath>
</defs>
</svg>
