<svg width="16" height="16" viewBox="0 0 16 16" fill="none" xmlns="http://www.w3.org/2000/svg">
<path d="M15.4 1.4H0.6C0.268629 1.4 0 1.66863 0 2C0 2.33137 0.268629 2.6 0.6 2.6H15.4C15.7314 2.6 16 2.33137 16 2C16 1.66863 15.7314 1.4 15.4 1.4Z" fill="white"/>
<path d="M15.4 7.4H0.6C0.268629 7.4 0 7.66863 0 8C0 8.33137 0.268629 8.6 0.6 8.6H15.4C15.7314 8.6 16 8.33137 16 8C16 7.66863 15.7314 7.4 15.4 7.4Z" fill="white"/>
<path d="M15.4 13.4H0.6C0.268629 13.4 0 13.6686 0 14C0 14.3314 0.268629 14.6 0.6 14.6H15.4C15.7314 14.6 16 14.3314 16 14C16 13.6686 15.7314 13.4 15.4 13.4Z" fill="white"/>
</svg>
