<svg width="100" height="32" viewBox="0 0 100 32" fill="none" xmlns="http://www.w3.org/2000/svg">
<g clip-path="url(#clip0_0_4)">
<mask id="mask0_0_4" style="mask-type:luminance" maskUnits="userSpaceOnUse" x="0" y="0" width="100" height="32">
<path d="M99.4033 0.200455H0.103027V31.8945H99.4033V0.200455Z" fill="white"/>
</mask>
<g mask="url(#mask0_0_4)">
<path d="M35.3222 13.4505L32.6816 31.8943H33.6748L34.4353 26.537H36.8667L37.8599 31.8943H40.1092L36.7048 13.4505H35.3222ZM34.5617 25.5885L35.4992 19.0631L36.6796 25.5885H34.5617Z" fill="white"/>
<path d="M53.6153 25.6907L50.1941 13.4505H47.7373V31.8943H48.7051V17.4062L48.6951 16.2142L53.1988 31.8892H54.5832V13.4505H53.6153V25.6907Z" fill="white"/>
<path d="M70.9725 26.2424L68.8767 13.4505H66.8145L67.6761 18.4654L66.6829 26.2595L64.5955 13.4505H62.5029L65.5077 31.8943H66.8904L68.042 23.0291L68.1786 21.9495L68.4062 23.0291L69.7888 31.8943H71.1732L73.6856 13.4505H72.6925L70.9725 26.2424Z" fill="white"/>
<path d="M83.9072 13.4505H81.7134V31.8943H83.9072V13.4505Z" fill="white"/>
<path d="M98.4402 13.4505V25.6907L95.0141 13.4505H92.5571V31.8943H93.5248V17.4062L93.5148 16.2142L98.0187 31.8892H99.4033V13.4505H98.4402Z" fill="white"/>
<path d="M8.87635 0.200455H7.62012V25.834H8.87635V0.200455Z" fill="white"/>
<path d="M11.3159 31.6803H12.5721V9.15621H11.3159V31.6803Z" fill="white"/>
<path d="M16.3914 20.1022H15.1353V31.68H16.3914V20.1022Z" fill="white"/>
<path d="M1.35922 20.1022H0.103027V31.68H1.35922V20.1022Z" fill="white"/>
<path d="M3.79932 31.6803H5.05551V9.15621H3.79932V31.6803Z" fill="white"/>
</g>
</g>
<defs>
<clipPath id="clip0_0_4">
<rect width="100" height="32" fill="white"/>
</clipPath>
</defs>
</svg>
