<svg width="16" height="16" viewBox="0 0 16 16" fill="none" xmlns="http://www.w3.org/2000/svg">
<g clip-path="url(#clip0_0_23)">
<path d="M2.77124 0.400002C2.50724 0.400002 2.25284 0.504002 2.06484 0.691202L0.829635 1.9248C0.465636 2.2848 0.348036 2.8112 0.420036 3.4632C0.504836 4.224 0.844036 5.1464 1.42484 6.212C2.38884 7.9784 3.80644 9.7552 4.78724 10.7344L5.27924 11.2256C6.26004 12.2048 8.03924 13.6136 9.81284 14.5752C11.0496 15.2456 12.0936 15.5968 12.8896 15.6C13.3792 15.6 13.792 15.476 14.0736 15.1632L15.3096 13.9288C15.5008 13.7312 15.6 13.4728 15.6 13.2168C15.6 12.9672 15.5056 12.7208 15.3136 12.536L13.0864 10.316C12.996 10.2223 12.8874 10.148 12.7674 10.0975C12.6473 10.0471 12.5183 10.0215 12.388 10.0224C12.1336 10.0224 11.8776 10.1176 11.6888 10.312L10.9472 11.052C10.8344 11.1592 10.5552 11.2792 10.0144 11.12C9.74084 11.0392 9.39204 10.896 9.00884 10.6888C8.33799 10.3236 7.7236 9.86305 7.18484 9.3216L6.69444 8.832C6.07324 8.20459 5.55801 7.48051 5.16884 6.688C5.04178 6.43291 4.94228 6.16499 4.87204 5.8888C4.73284 5.3072 4.91604 5.1064 4.96404 5.0568L5.70484 2.9144L3.47764 0.690402C3.28977 0.504101 3.03582 0.399702 2.77124 0.400002Z" stroke="white"/>
</g>
<defs>
<clipPath id="clip0_0_23">
<rect width="16" height="16" fill="white"/>
</clipPath>
</defs>
</svg>
