<svg width="12" height="12" viewBox="0 0 12 12" fill="none" xmlns="http://www.w3.org/2000/svg">
<g clip-path="url(#clip0_45_1731)">
<path d="M0.545989 5.95037C0.545634 6.91104 0.797772 7.84884 1.27702 8.67546L0.5 11.4999L3.40346 10.742C4.2034 11.1763 5.10407 11.4052 6.02068 11.4055H6.02302C9.04155 11.4055 11.4987 8.96004 11.5 5.95479C11.5005 4.49824 10.9313 3.12874 9.89734 2.09845C8.86318 1.0682 7.4881 0.500568 6.02302 0.499901C3.00404 0.499901 0.54721 2.94502 0.545989 5.95037ZM2.27502 8.53314L2.16664 8.36178C1.71092 7.6404 1.47035 6.80676 1.47074 5.95074C1.47171 3.45278 3.51374 1.42056 6.02476 1.42056C7.24078 1.42106 8.38359 1.89291 9.24316 2.74922C10.1027 3.60548 10.5756 4.7438 10.5753 5.95442C10.5742 8.45244 8.53209 10.4849 6.02308 10.4849H6.02128C5.20428 10.4845 4.40308 10.2662 3.70429 9.85332L3.53798 9.75522L1.81502 10.2049L2.27502 8.53314Z" fill="white"/>
<path fill-rule="evenodd" clip-rule="evenodd" d="M4.53172 3.46037C4.41988 3.21289 4.30216 3.20791 4.19576 3.20357C4.10875 3.19987 4.00912 3.2001 3.90966 3.2001C3.81014 3.2001 3.64837 3.23732 3.51159 3.38604C3.37473 3.53477 2.98901 3.89429 2.98901 4.62552C2.98901 5.35684 3.52403 6.06342 3.59861 6.16266C3.67325 6.26178 4.63143 7.81026 6.14885 8.406C7.40999 8.90112 7.66661 8.8026 7.94033 8.77788C8.21405 8.7531 8.82359 8.41842 8.94803 8.07132C9.07241 7.72434 9.07241 7.42692 9.03509 7.36476C8.99777 7.30278 8.89823 7.26564 8.74895 7.1913C8.59961 7.11696 7.86569 6.75738 7.72883 6.70782C7.59191 6.65826 7.49237 6.63354 7.39289 6.78228C7.29335 6.93096 7.00739 7.26564 6.92027 7.36476C6.83321 7.46406 6.74609 7.47648 6.59675 7.40214C6.44747 7.32756 5.96664 7.17078 5.39624 6.6645C4.95243 6.2706 4.65283 5.78408 4.56568 5.6353C4.4786 5.48663 4.55638 5.40613 4.63126 5.33203C4.69829 5.26544 4.78058 5.15856 4.85522 5.07176C4.92972 4.98498 4.95462 4.92304 5.00438 4.82393C5.05414 4.72469 5.02926 4.63789 4.99194 4.56358C4.95462 4.48925 4.66448 3.75422 4.53172 3.46037Z" fill="white"/>
</g>
<defs>
<clipPath id="clip0_45_1731">
<rect width="12" height="12" fill="white"/>
</clipPath>
</defs>
</svg>
