<svg width="11" height="11" viewBox="0 0 11 11" fill="none" xmlns="http://www.w3.org/2000/svg">
<path d="M0.0459888 5.45047C0.0456342 6.41114 0.297772 7.34894 0.777022 8.17556L0 11L2.90346 10.2421C3.7034 10.6764 4.60407 10.9053 5.52068 10.9056H5.52302C8.54155 10.9056 10.9987 8.46014 11 5.45489C11.0005 3.99834 10.4313 2.62884 9.39734 1.59855C8.36318 0.568301 6.9881 0.0006672 5.52302 0C2.50404 0 0.0472098 2.44512 0.0459888 5.45047ZM1.77502 8.03324L1.66664 7.86188C1.21092 7.1405 0.970348 6.30686 0.970744 5.45084C0.97171 2.95288 3.01374 0.920663 5.52476 0.920663C6.74078 0.921155 7.88359 1.39301 8.74316 2.24932C9.60266 3.10557 10.0756 4.2439 10.0753 5.45452C10.0742 7.95254 8.03209 9.98504 5.52308 9.98504H5.52128C4.70428 9.98462 3.90308 9.76628 3.20429 9.35342L3.03798 9.25532L1.31502 9.70502L1.77502 8.03324Z" fill="white"/>
</svg>
