<svg width="16" height="16" viewBox="0 0 16 16" fill="none" xmlns="http://www.w3.org/2000/svg">
<g clip-path="url(#clip0_0_50)">
<mask id="mask0_0_50" style="mask-type:luminance" maskUnits="userSpaceOnUse" x="0" y="0" width="16" height="16">
<path d="M16 0H0V16H16V0Z" fill="white"/>
</mask>
<g mask="url(#mask0_0_50)">
<path fill-rule="evenodd" clip-rule="evenodd" d="M7.18115 7.81784C6.78632 8.10699 6.36143 8.41859 5.90643 8.75267C5.41568 9.11915 4.97605 9.29691 4.57731 9.28579C4.13768 9.27467 3.29931 9.01923 2.66542 8.79707C2.57778 8.76659 2.49214 8.73779 2.40928 8.70979C1.76708 8.49331 1.29102 8.33283 1.3363 7.9197C1.36698 7.67536 1.6737 7.43102 2.24624 7.17558C5.82464 5.48744 8.2068 4.36571 9.40304 3.8215C12.8077 2.27774 13.5234 2.01119 13.9834 2.00008C14.0857 2.00008 14.3106 2.0223 14.4639 2.15557C14.5866 2.26663 14.6173 2.41102 14.6378 2.52207C14.6582 2.63314 14.6786 2.86637 14.6582 3.04406C14.4742 5.15425 13.6767 10.2742 13.2678 12.6288C13.0939 13.6283 12.7565 13.9615 12.4294 13.9948C11.8597 14.0479 11.4001 13.6927 10.8908 13.2992C10.7602 13.1983 10.6265 13.0949 10.4868 12.9952C9.89376 12.5759 9.44456 12.243 8.98688 11.9038C8.60816 11.6231 8.2236 11.3381 7.74675 10.9961C6.6979 10.2493 7.1383 9.79139 7.72516 9.18123C7.81905 9.08355 7.91669 8.98203 8.01256 8.87483C8.02088 8.86579 8.0352 8.85091 8.05496 8.83059C8.12496 8.75859 8.26344 8.61891 8.44576 8.43499C9.0008 7.87529 9.96232 6.90564 10.6368 6.18626C10.8603 5.94783 11.0523 5.7369 11.1875 5.57749C11.198 5.56508 11.2082 5.55298 11.2181 5.5412C11.3239 5.41434 11.3884 5.32506 11.3967 5.28753C11.407 5.25421 11.407 5.12094 11.3354 5.0543C11.2638 4.98766 11.1616 5.00987 11.0798 5.03208C11.0618 5.03563 11.003 5.0703 10.9031 5.13606C10.8881 5.14597 10.8722 5.15658 10.8552 5.16789C10.7007 5.27138 10.4683 5.43386 10.1579 5.65518C9.50824 6.11849 8.51664 6.83974 7.18115 7.81784ZM5.7921 10.3614C5.81615 10.5684 5.87547 10.7792 5.97687 10.9889C6.20495 11.4607 6.59215 11.8106 6.97142 12.0808C7.39336 12.3835 7.77733 12.6676 8.1644 12.954C8.64936 13.3128 9.13912 13.6752 9.71456 14.0822C9.83088 14.1652 9.93976 14.2493 10.0676 14.3481C10.099 14.3724 10.1315 14.3975 10.1655 14.4236C10.3257 14.5469 10.5214 14.6953 10.732 14.829C11.1576 15.0992 11.7746 15.3949 12.553 15.3224L12.5587 15.3219L12.5644 15.3213C13.185 15.2581 13.6762 14.9044 14.0025 14.4328C14.3034 13.998 14.4778 13.4529 14.5814 12.8572C14.9891 10.5096 15.7933 5.35641 15.9852 3.17465C16.0207 2.83808 15.9855 2.4789 15.949 2.28065C15.9482 2.27635 15.9474 2.27149 15.9464 2.26609C15.9205 2.12152 15.825 1.58916 15.3587 1.16709L15.3487 1.15802L15.3386 1.14916C14.8075 0.687687 14.1657 0.666748 13.9834 0.666748H13.9673L13.9512 0.667136C13.466 0.678849 12.9812 0.830383 12.3084 1.09563C11.6103 1.37084 10.5504 1.83726 8.8524 2.60718L8.85088 2.60786C7.64538 3.15631 5.25624 4.28134 1.68948 5.96398C1.36012 6.11171 1.02574 6.29075 0.747318 6.51695C0.485346 6.72979 0.09134 7.13235 0.0133507 7.75363L0.012045 7.76403L0.0109031 7.77445C-0.0385757 8.22595 0.0815448 8.65995 0.346867 9.01467C0.57906 9.32515 0.872144 9.50755 1.07345 9.61339C1.36692 9.76779 1.7639 9.90067 2.05093 9.99667C2.11578 10.0184 2.17502 10.0382 2.22619 10.056C2.56169 10.1736 2.96162 10.3036 3.34598 10.4076C3.6979 10.5028 4.14998 10.6084 4.54191 10.6186C4.98728 10.6308 5.4059 10.5289 5.7921 10.3614Z" fill="white"/>
</g>
</g>
<defs>
<clipPath id="clip0_0_50">
<rect width="16" height="16" fill="white"/>
</clipPath>
</defs>
</svg>
