<svg width="12" height="12" viewBox="0 0 12 12" fill="none" xmlns="http://www.w3.org/2000/svg">
<g clip-path="url(#clip0_53_4108)">
<path d="M0.545989 5.95037C0.545634 6.91105 0.797772 7.84885 1.27702 8.67547L0.5 11.4999L3.40346 10.742C4.2034 11.1763 5.10407 11.4052 6.02068 11.4055H6.02302C9.04155 11.4055 11.4987 8.96005 11.5 5.9548C11.5005 4.49825 10.9313 3.12875 9.89734 2.09846C8.86318 1.06821 7.4881 0.500576 6.02302 0.499908C3.00404 0.499908 0.54721 2.94503 0.545989 5.95037ZM2.27502 8.53315L2.16664 8.36179C1.71092 7.64041 1.47035 6.80677 1.47074 5.95075C1.47171 3.45278 3.51374 1.42057 6.02476 1.42057C7.24078 1.42106 8.38359 1.89292 9.24316 2.74923C10.1027 3.60548 10.5756 4.74381 10.5753 5.95443C10.5742 8.45245 8.53209 10.4849 6.02308 10.4849H6.02128C5.20428 10.4845 4.40308 10.2662 3.70429 9.85332L3.53798 9.75523L1.81502 10.2049L2.27502 8.53315Z" fill="white"/>
<path fill-rule="evenodd" clip-rule="evenodd" d="M4.53172 3.46038C4.41988 3.2129 4.30216 3.20791 4.19576 3.20357C4.10875 3.19987 4.00912 3.20011 3.90966 3.20011C3.81014 3.20011 3.64837 3.23732 3.51159 3.38605C3.37473 3.53477 2.98901 3.89429 2.98901 4.62553C2.98901 5.35685 3.52403 6.06343 3.59861 6.16267C3.67325 6.26179 4.63143 7.81027 6.14885 8.40601C7.40999 8.90113 7.66661 8.80261 7.94033 8.77789C8.21405 8.75311 8.82359 8.41843 8.94803 8.07133C9.07241 7.72435 9.07241 7.42693 9.03509 7.36477C8.99777 7.30279 8.89823 7.26565 8.74895 7.19131C8.59961 7.11697 7.86569 6.75739 7.72883 6.70783C7.59191 6.65827 7.49237 6.63355 7.39289 6.78229C7.29335 6.93097 7.00739 7.26565 6.92027 7.36477C6.83321 7.46407 6.74609 7.47649 6.59675 7.40215C6.44747 7.32757 5.96664 7.17079 5.39624 6.66451C4.95243 6.27061 4.65283 5.78409 4.56568 5.6353C4.4786 5.48664 4.55638 5.40613 4.63126 5.33204C4.69829 5.26545 4.78058 5.15857 4.85522 5.07177C4.92972 4.98499 4.95462 4.92304 5.00438 4.82394C5.05414 4.7247 5.02926 4.63789 4.99194 4.56358C4.95462 4.48925 4.66448 3.75423 4.53172 3.46038Z" fill="white"/>
</g>
<defs>
<clipPath id="clip0_53_4108">
<rect width="12" height="12" fill="white"/>
</clipPath>
</defs>
</svg>
