<svg width="7" height="6" viewBox="0 0 7 6" fill="none" xmlns="http://www.w3.org/2000/svg">
<path fill-rule="evenodd" clip-rule="evenodd" d="M1.65219 0.27875C1.53242 0.0137032 1.40634 0.0083633 1.2924 0.00371742C1.1992 -0.000247314 1.0925 3.15162e-06 0.985986 3.15162e-06C0.879401 3.15162e-06 0.706154 0.0398628 0.559664 0.19914C0.413091 0.358423 0 0.743459 0 1.52659C0 2.30981 0.572991 3.06654 0.652858 3.17282C0.732802 3.27898 1.75898 4.93736 3.38409 5.57538C4.73474 6.10564 5.00957 6.00012 5.30272 5.97365C5.59587 5.94711 6.24867 5.58868 6.38194 5.21694C6.51515 4.84534 6.51515 4.52681 6.47518 4.46024C6.43521 4.39386 6.3286 4.35408 6.16873 4.27447C6.00879 4.19485 5.22278 3.80975 5.07621 3.75667C4.92957 3.7036 4.82297 3.67712 4.71643 3.83642C4.60982 3.99565 4.30357 4.35408 4.21026 4.46024C4.11702 4.56659 4.02372 4.57989 3.86378 4.50027C3.70391 4.4204 3.18895 4.25249 2.57807 3.71028C2.10276 3.28842 1.7819 2.76738 1.68857 2.60803C1.59531 2.44882 1.67861 2.3626 1.7588 2.28324C1.83059 2.21193 1.91872 2.09746 1.99866 2.0045C2.07844 1.91156 2.10511 1.84522 2.1584 1.73908C2.21169 1.63279 2.18505 1.53983 2.14508 1.46025C2.10511 1.38064 1.79438 0.593455 1.65219 0.27875Z" fill="white"/>
</svg>
