<svg width="16" height="16" viewBox="0 0 16 16" fill="none" xmlns="http://www.w3.org/2000/svg">
<g clip-path="url(#clip0_0_58)">
<path d="M0.728066 7.93379C0.727594 9.21469 1.06378 10.4651 1.70278 11.5672L0.666748 15.3332L4.53802 14.3226C5.60462 14.9017 6.80551 15.2069 8.02765 15.2073H8.03077C12.0555 15.2073 15.3317 11.9467 15.3334 7.93969C15.3341 5.99762 14.5752 4.17162 13.1965 2.7979C11.8176 1.42424 9.98421 0.667394 8.03077 0.666504C4.00546 0.666504 0.729694 3.92666 0.728066 7.93379ZM3.03344 11.3775L2.88893 11.149C2.28131 10.1872 1.96054 9.07565 1.96107 7.93429C1.96236 4.60367 4.68506 1.89405 8.03309 1.89405C9.65445 1.89471 11.1782 2.52385 12.3243 3.6656C13.4703 4.80727 14.1008 6.32504 14.1004 7.9392C14.099 11.2699 11.3762 13.9799 8.03085 13.9799H8.02845C6.93912 13.9793 5.87085 13.6882 4.93913 13.1377L4.71738 13.0069L2.4201 13.6065L3.03344 11.3775Z" fill="white"/>
<path fill-rule="evenodd" clip-rule="evenodd" d="M6.04229 4.61388C5.89318 4.28391 5.73622 4.27726 5.59435 4.27147C5.47833 4.26654 5.34549 4.26685 5.21288 4.26685C5.08018 4.26685 4.8645 4.31647 4.68212 4.51477C4.49964 4.71307 3.98535 5.19243 3.98535 6.16741C3.98535 7.14251 4.69871 8.08461 4.79814 8.21693C4.89767 8.34909 6.17524 10.4137 8.19846 11.208C9.87998 11.8682 10.2221 11.7368 10.5871 11.7039C10.9521 11.6708 11.7648 11.2246 11.9307 10.7618C12.0965 10.2992 12.0965 9.90261 12.0468 9.81973C11.997 9.73709 11.8643 9.68757 11.6653 9.58845C11.4661 9.48933 10.4876 9.00989 10.3051 8.94381C10.1225 8.87773 9.98982 8.84477 9.85718 9.04309C9.72446 9.24133 9.34318 9.68757 9.22702 9.81973C9.11094 9.95213 8.99478 9.96869 8.79566 9.86957C8.59662 9.77013 7.95552 9.56109 7.19498 8.88605C6.60324 8.36085 6.20378 7.71216 6.08758 7.51378C5.97147 7.31556 6.07518 7.20822 6.17501 7.10943C6.26439 7.02064 6.37411 6.87813 6.47363 6.76239C6.57296 6.64669 6.60616 6.5641 6.6725 6.43196C6.73886 6.29963 6.70568 6.1839 6.65592 6.08482C6.60616 5.98571 6.2193 5.00568 6.04229 4.61388Z" fill="white"/>
</g>
<defs>
<clipPath id="clip0_0_58">
<rect width="16" height="16" fill="white"/>
</clipPath>
</defs>
</svg>
